<?xml version="1.0" encoding="utf-8"?>
<!-- Generator: Adobe Illustrator 27.3.0, SVG Export Plug-In . SVG Version: 6.00 Build 0)  -->
<svg version="1.1" id="Layer_1" xmlns="http://www.w3.org/2000/svg" xmlns:xlink="http://www.w3.org/1999/xlink" x="0px" y="0px"
	 viewBox="0 0 24 24" style="enable-background:new 0 0 24 24;" xml:space="preserve">
<style type="text/css">
	.st0{fill:none;stroke:#443B52;stroke-width:1.5;stroke-linecap:round;stroke-linejoin:round;}
	.st1{fill:#443B52;}
</style>
<path class="st0" d="M12,22c5.5,0,10-4.5,10-10c0-5.5-4.5-10-10-10C6.5,2,2,6.5,2,12C2,17.5,6.5,22,12,22z"/>
<path class="st0" d="M7,9l5,1 M17,9l-5,1 M12,10v3 M12,13l-2,5 M12,13l2,5"/>
<path class="st1" d="M12,8.5c-0.7,0-1.2-0.6-1.2-1.3S11.3,6,12,6s1.2,0.6,1.2,1.2S12.7,8.5,12,8.5z"/>
</svg>
